<svg id="Objeto_Inteligente_de_Vetor" data-name="Objeto Inteligente de Vetor" xmlns="http://www.w3.org/2000/svg" xmlns:xlink="http://www.w3.org/1999/xlink" width="56.755" height="56.844" viewBox="0 0 56.755 56.844">
  <defs>
    <clipPath id="clip-path">
      <rect id="Retângulo_1" data-name="Retângulo 1" width="56.755" height="56.844" fill="none"/>
    </clipPath>
  </defs>
  <g id="Objeto_Inteligente_de_Vetor-2" data-name="Objeto Inteligente de Vetor" transform="translate(0 0)">
    <g id="Grupo_3" data-name="Grupo 3" transform="translate(0 0)">
      <g id="Grupo_2" data-name="Grupo 2">
        <g id="Grupo_1" data-name="Grupo 1" clip-path="url(#clip-path)">
          <path id="Caminho_1" data-name="Caminho 1" d="M113.07,39.579a20.786,20.786,0,0,0-1.319-6.9,14.55,14.55,0,0,0-8.3-8.317,20.771,20.771,0,0,0-6.885-1.321c-3.038-.144-4-.178-11.708-.178s-8.67.033-11.7.166a20.722,20.722,0,0,0-6.885,1.321,13.852,13.852,0,0,0-5.034,3.287,14,14,0,0,0-3.27,5.03,20.864,20.864,0,0,0-1.319,6.9c-.144,3.043-.177,4.009-.177,11.727s.033,8.684.166,11.715a20.8,20.8,0,0,0,1.32,6.9,14.546,14.546,0,0,0,8.3,8.317,20.763,20.763,0,0,0,6.885,1.321c3.027.134,3.992.167,11.7.167s8.67-.033,11.7-.167a20.7,20.7,0,0,0,6.885-1.321,14.527,14.527,0,0,0,8.3-8.317,20.853,20.853,0,0,0,1.319-6.9c.133-3.031.166-4,.166-11.715s-.011-8.684-.144-11.716Zm-5.111,23.208a15.611,15.611,0,0,1-.976,5.275,9.422,9.422,0,0,1-5.388,5.4,15.6,15.6,0,0,1-5.267.977c-2.994.133-3.891.166-11.464.166s-8.482-.033-11.465-.166a15.54,15.54,0,0,1-5.267-.977,8.73,8.73,0,0,1-3.259-2.121,8.843,8.843,0,0,1-2.118-3.265A15.67,15.67,0,0,1,61.78,62.8c-.133-3-.166-3.9-.166-11.482s.033-8.5.166-11.482a15.6,15.6,0,0,1,.975-5.274A8.641,8.641,0,0,1,64.885,31.3a8.812,8.812,0,0,1,3.259-2.121,15.613,15.613,0,0,1,5.267-.977c2.994-.133,3.892-.166,11.464-.166s8.482.033,11.465.166a15.548,15.548,0,0,1,5.267.977,8.73,8.73,0,0,1,3.259,2.121,8.832,8.832,0,0,1,2.118,3.265,15.672,15.672,0,0,1,.976,5.274c.133,3,.166,3.9.166,11.482s-.033,8.473-.166,11.471Zm0,0" transform="translate(-56.37 -22.867)"/>
        </g>
      </g>
      <path id="Caminho_2" data-name="Caminho 2" d="M81.005,32.839a14.6,14.6,0,1,0,14.579,14.6,14.595,14.595,0,0,0-14.579-14.6Zm0,24.074a9.472,9.472,0,1,1,9.457-9.472,9.466,9.466,0,0,1-9.457,9.472Zm0,0" transform="translate(-52.522 -19.013)"/>
      <path id="Caminho_3" data-name="Caminho 3" d="M92.226,33.372a3.4,3.4,0,1,1-3.4-3.409,3.406,3.406,0,0,1,3.4,3.409Zm0,0" transform="translate(-45.183 -20.125)"/>
    </g>
  </g>
  <path id="Color_Overlay" data-name="Color Overlay" d="M16.676,56.677A20.736,20.736,0,0,1,9.79,55.355a14.537,14.537,0,0,1-8.3-8.317,20.808,20.808,0,0,1-1.319-6.9C.033,37.111,0,36.145,0,28.427S.033,19.744.177,16.7A20.894,20.894,0,0,1,1.5,9.805a14,14,0,0,1,3.271-5.03A13.84,13.84,0,0,1,9.8,1.487,20.726,20.726,0,0,1,16.686.166C19.714.034,20.677,0,28.384,0s8.669.034,11.708.178A20.783,20.783,0,0,1,46.976,1.5,13.914,13.914,0,0,1,52,4.775,13.863,13.863,0,0,1,55.28,9.814a20.8,20.8,0,0,1,1.321,6.9c.021.489.04.922.055,1.341V38.259c-.021.589-.046,1.181-.078,1.883a20.8,20.8,0,0,1-1.319,6.9,14.525,14.525,0,0,1-8.305,8.317,20.667,20.667,0,0,1-6.884,1.322c-3.027.133-3.992.166-11.7.166S19.7,56.811,16.676,56.677Zm.266-51.348a15.614,15.614,0,0,0-5.267.978A8.814,8.814,0,0,0,8.416,8.427a8.629,8.629,0,0,0-2.128,3.266,15.584,15.584,0,0,0-.976,5.274c-.133,2.988-.166,3.9-.166,11.482s.033,8.484.166,11.481a15.648,15.648,0,0,0,.976,5.275A8.822,8.822,0,0,0,8.4,48.47a8.713,8.713,0,0,0,3.259,2.121,15.534,15.534,0,0,0,5.267.977c2.983.133,3.89.166,11.465.166s8.47-.033,11.463-.166a15.592,15.592,0,0,0,5.267-.977,9.415,9.415,0,0,0,5.389-5.4,15.622,15.622,0,0,0,.975-5.274c.132-3,.166-3.886.166-11.471s-.034-8.485-.166-11.482a15.694,15.694,0,0,0-.975-5.274A8.847,8.847,0,0,0,48.4,8.427a8.733,8.733,0,0,0-3.259-2.121,15.555,15.555,0,0,0-5.267-.978c-2.983-.132-3.88-.166-11.464-.166S19.935,5.2,16.942,5.329ZM13.8,28.427a14.58,14.58,0,1,1,14.581,14.6A14.6,14.6,0,0,1,13.8,28.427Zm5.123,0a9.458,9.458,0,1,0,9.459-9.472A9.466,9.466,0,0,0,18.926,28.427Zm21.21-15.179a3.4,3.4,0,1,1,3.4,3.408A3.406,3.406,0,0,1,40.136,13.248Z" transform="translate(0.1 0.001)" fill="#ff7556"/>
</svg>
