<svg xmlns="http://www.w3.org/2000/svg" width="57" height="57" viewBox="0 0 57 57">
  <g id="Objeto_Inteligente_de_Vetor" data-name="Objeto Inteligente de Vetor" transform="translate(0 0.156)">
    <g id="Objeto_Inteligente_de_Vetor-2" data-name="Objeto Inteligente de Vetor" transform="translate(0)">
      <path id="Caminho_7" data-name="Caminho 7" d="M50.183,0H6.661A6.669,6.669,0,0,0,0,6.661V50.183a6.669,6.669,0,0,0,6.661,6.661H50.183a6.669,6.669,0,0,0,6.661-6.661V6.661A6.669,6.669,0,0,0,50.183,0ZM52.4,50.183a2.223,2.223,0,0,1-2.22,2.22H37.526v-18.1h6.86l1.134-6.883H37.526V22.649a3.275,3.275,0,0,1,3.331-3.331h4.552V12.435H40.857A10.212,10.212,0,0,0,30.645,22.668v4.755H23.981v6.883h6.664V52.4H6.661a2.223,2.223,0,0,1-2.22-2.22V6.661a2.223,2.223,0,0,1,2.22-2.22H50.183a2.223,2.223,0,0,1,2.22,2.22Z"/>
    </g>
    <path id="Color_Overlay" data-name="Color Overlay" d="M6.68,57A6.688,6.688,0,0,1,0,50.32V6.68A6.688,6.688,0,0,1,6.68,0H50.32A6.687,6.687,0,0,1,57,6.68V50.32A6.687,6.687,0,0,1,50.32,57Zm30.949-4.454H50.32a2.229,2.229,0,0,0,2.227-2.226V6.68A2.23,2.23,0,0,0,50.32,4.453H6.68A2.23,2.23,0,0,0,4.454,6.68V50.32A2.229,2.229,0,0,0,6.68,52.546H30.729V34.4H24.048V27.5h6.681V22.73a10.241,10.241,0,0,1,10.24-10.261h4.565v6.9H40.969a3.284,3.284,0,0,0-3.34,3.34V27.5h8.015l-1.136,6.9H37.629Z" transform="translate(0 -0.156)" fill="#ff7556"/>
  </g>
</svg>
