<svg xmlns="http://www.w3.org/2000/svg" width="40.001" height="40" viewBox="0 0 40.001 40">
  <path id="Forma_3" data-name="Forma 3" d="M74.584,3507.434a16.157,16.157,0,0,1-4.88-9.175,1.372,1.372,0,0,1,.394-1.149l3.093-3.091a1.38,1.38,0,0,0,.195-1.708l-4.925-7.647a1.38,1.38,0,0,0-1.788-.5l-7.906,3.723a1.373,1.373,0,0,0-.759,1.372c.414,3.935,2.13,13.608,11.636,23.116s19.179,11.222,23.117,11.636a1.373,1.373,0,0,0,1.372-.759l3.723-7.906a1.38,1.38,0,0,0-.5-1.786l-7.647-4.923a1.38,1.38,0,0,0-1.708.193l-3.092,3.093a1.371,1.371,0,0,1-1.149.394,16.159,16.159,0,0,1-9.176-4.88Zm0,0" transform="translate(-58.001 -3484.014)" fill="#ff7556"/>
</svg>
