<svg xmlns="http://www.w3.org/2000/svg" width="39.991" height="30.008" viewBox="0 0 39.991 30.008">
  <path id="Forma_2" data-name="Forma 2" d="M99.991,3416.462A3.494,3.494,0,0,0,96.476,3413H63.515A3.5,3.5,0,0,0,60,3416.462v23.083a3.5,3.5,0,0,0,3.515,3.462H96.476a3.494,3.494,0,0,0,3.515-3.462Zm-37.648.467,11.285,11.021-11.285,11.117Zm17.727,14.063-16.059-15.684h31.98Zm-4.778-1.416,3.957,3.864a1.184,1.184,0,0,0,1.653,0l3.858-3.8L95.991,3440.7H64ZM86.417,3428l11.231-11.064v22.127Z" transform="translate(-60 -3413)" fill="#ff7556"/>
</svg>
