<svg xmlns="http://www.w3.org/2000/svg" width="844.087" height="270.06" viewBox="0 0 844.087 270.06">
  <g id="Camada_2" data-name="Camada 2" transform="translate(-74.23 -132.22)">
    <path id="Caminho_9" data-name="Caminho 9" d="M234.31,319.51q-9.74,10-28.16,10t-28.16-10q-13.05-12.3-13.06-35.45,0-23.61,13.06-35.44,9.73-10,28.16-10t28.16,10q13,11.83,13,35.44Q247.31,307.21,234.31,319.51Zm-11.22-13.06q6.27-7.87,6.27-22.39t-6.27-22.36q-6.27-7.89-16.94-7.89t-17,7.87q-6.36,7.86-6.36,22.38t6.36,22.39q6.35,7.88,17,7.87T223.09,306.45Z" fill="#fff"/>
    <path id="Caminho_10" data-name="Caminho 10" d="M386.27,241.21h15.19a3.64,3.64,0,0,1,3.43,2.43l29.54,83.51H415l-5.67-17.67H377.64l-5.82,17.67H353l29.82-83.52a3.64,3.64,0,0,1,3.45-2.42Zm-3.74,53.46h22l-10.21-31.78a.69.69,0,0,0-1.32,0Z" fill="#fff"/>
    <path id="Caminho_11" data-name="Caminho 11" d="M393.53,222.64v11.68a1.38,1.38,0,0,0,2.36,1L409,222.17a1.39,1.39,0,0,0-1-2.36H396.36A2.83,2.83,0,0,0,393.53,222.64Z" fill="#fff"/>
    <path id="Caminho_12" data-name="Caminho 12" d="M719.79,255v72.18h18.44V239.77a2.12,2.12,0,0,0-3.61-1.5l-13.51,13.52A4.5,4.5,0,0,0,719.79,255Z" fill="#fff"/>
    <path id="Caminho_13" data-name="Caminho 13" d="M603.05,284.81q-4.77-4.06-14.54-6.77l-14.86-4.11c-5.74-1.57-9.47-2.89-11.22-4a7.35,7.35,0,0,1-3.9-7c.13-3.32,1.52-5.27,4.41-7s6.68-2.53,11.4-2.35a23.57,23.57,0,0,1,10.55,2.55,13.84,13.84,0,0,1,5.66,5.61,3.5,3.5,0,0,0,5,1.2,56.52,56.52,0,0,0,7.41-6.87c1.64-2,1.94-3.24.64-5.21a21.42,21.42,0,0,0-4.29-4.6q-9.37-7.53-23-8.06-16.38-.61-25.12,6.65A24.6,24.6,0,0,0,542,263.61q-.48,12.57,7.93,18.82,5,3.74,18.49,7.27l9.17,2.38q8.06,2.06,11.71,4.45a7.3,7.3,0,0,1,3.49,6.7c-.18,4.83-2.55,7.57-7.71,9.16a33,33,0,0,1-10.53,1c-7.18-.28-12.49-1.77-15.31-5.4a30.181,30.181,0,0,1-2.34-3.68,3.27,3.27,0,0,0-5-1.15c-1.4,1.23-5.88,5.43-7.24,6.79a4.35,4.35,0,0,0-.49,5.6,20.829,20.829,0,0,0,4,4.23q9.38,8,26.25,8.64,16.53.63,25.87-6.76a24.5,24.5,0,0,0,9.8-19.1Q610.45,291.14,603.05,284.81Z" fill="#fff"/>
    <path id="Caminho_14" data-name="Caminho 14" d="M911.24,284.81q-4.77-4.06-14.54-6.77l-14.86-4.11q-8.6-2.35-11.21-4a7.31,7.31,0,0,1-3.9-7c.13-3.32,1.52-5.27,4.4-7s6.69-2.53,11.4-2.35a23.61,23.61,0,0,1,10.56,2.55,13.76,13.76,0,0,1,5.65,5.61,3.5,3.5,0,0,0,5,1.2,56.6,56.6,0,0,0,7.42-6.87c1.64-2,1.93-3.24.63-5.21a21.17,21.17,0,0,0-4.29-4.6q-9.37-7.53-23-8.06-16.37-.61-25.11,6.65a24.54,24.54,0,0,0-9.18,18.75q-.48,12.57,7.93,18.82,5,3.74,18.49,7.27l9.17,2.38q8.06,2.06,11.71,4.45a7.32,7.32,0,0,1,3.49,6.7c-.19,4.83-2.56,7.57-7.72,9.16a33,33,0,0,1-10.53,1c-7.18-.28-12.48-1.77-15.31-5.4a30.294,30.294,0,0,1-2.33-3.68,3.27,3.27,0,0,0-5-1.15c-1.41,1.23-5.88,5.43-7.25,6.79a4.33,4.33,0,0,0-.48,5.6,20.829,20.829,0,0,0,4,4.23q9.38,8,26.25,8.64,16.51.63,25.87-6.76a24.53,24.53,0,0,0,9.8-19.1Q918.66,291.14,911.24,284.81Z" fill="#fff"/>
    <path id="Caminho_34" data-name="Caminho 34" d="M102,330.17c18.14,26.4,44,49.68,70.84,61.55" fill="none" stroke="#dd1d4b" stroke-linecap="round" stroke-linejoin="round" stroke-width="4.44"/>
    <path id="Caminho_35" data-name="Caminho 35" d="M96.45,207.82c-12.14,16.69-20,34.75-20,52.47,0,19.09,7.42,40.4,19.53,60.53" fill="none" stroke="#dd1d4b" stroke-linecap="round" stroke-linejoin="round" stroke-width="4.44"/>
    <path id="Caminho_36" data-name="Caminho 36" d="M268.92,179.91c-14.76-28.47-29.77-48.09-63.31-45.2-24.91,2.15-72,29.06-101.64,62.58" fill="none" stroke="#dd1d4b" stroke-linecap="round" stroke-linejoin="round" stroke-width="4.44"/>
    <path id="Caminho_37" data-name="Caminho 37" d="M298.49,356.28c24.78-23.59,36.43-47.49,37.25-68.06,1.67-42-32.05-36.76-61.42-96.5" fill="none" stroke="#dd1d4b" stroke-linecap="round" stroke-linejoin="round" stroke-width="4.44"/>
    <path id="Caminho_38" data-name="Caminho 38" d="M184.23,396.24c7.15,2,17.71,3.82,24.72,3.82,28,0,56.14-14.36,79.95-35" fill="none" stroke="#dd1d4b" stroke-linecap="round" stroke-linejoin="round" stroke-width="4.44"/>
    <path id="Caminho_39" data-name="Caminho 39" d="M189.44,159.17c-31.76,10-72.45,43-89.69,76.24" fill="none" stroke="#dd1d4b" stroke-linecap="round" stroke-linejoin="round" stroke-width="4.44"/>
    <path id="Caminho_40" data-name="Caminho 40" d="M273.47,217.27c-21.12-32.93-29.74-67.54-72.15-60.47" fill="none" stroke="#dd1d4b" stroke-linecap="round" stroke-linejoin="round" stroke-width="4.44"/>
    <path id="Caminho_41" data-name="Caminho 41" d="M318.33,307.11c2.62-6.57,4.06-12.8,4.06-18.36,0-29.22-21.73-35.09-42-61.46" fill="none" stroke="#dd1d4b" stroke-linecap="round" stroke-linejoin="round" stroke-width="4.44"/>
    <path id="Caminho_42" data-name="Caminho 42" d="M275.2,361.59c16.89-13.59,29.8-27.52,38.08-43.26" fill="none" stroke="#dd1d4b" stroke-linecap="round" stroke-linejoin="round" stroke-width="4.44"/>
    <path id="Caminho_43" data-name="Caminho 43" d="M132,351.55c21.45,21.05,47.2,38.18,75.8,38.18a92.76,92.76,0,0,0,41.42-10.34c5.66-2.86,10.85-6.8,16.2-10.49" fill="none" stroke="#dd1d4b" stroke-linecap="round" stroke-linejoin="round" stroke-width="4.44"/>
    <path id="Caminho_44" data-name="Caminho 44" d="M95.26,246.23A63.36,63.36,0,0,0,91.49,267c0,24.24,12.78,52.6,32.81,75.95" fill="none" stroke="#dd1d4b" stroke-linecap="round" stroke-linejoin="round" stroke-width="4.44"/>
    <path id="Caminho_45" data-name="Caminho 45" d="M281.81,248.15a182.4,182.4,0,0,1-13.91-16.94c-12.17-16.92-19.37-34.69-30.51-45.73" fill="none" stroke="#dd1d4b" stroke-linecap="round" stroke-linejoin="round" stroke-width="4.44"/>
    <path id="Caminho_46" data-name="Caminho 46" d="M288.9,330.17c9.81-13.28,17.69-25.46,18.91-39.93,1.06-12.42-7.29-22.39-16.79-32.43" fill="none" stroke="#dd1d4b" stroke-linecap="round" stroke-linejoin="round" stroke-width="4.44"/>
    <path id="Caminho_47" data-name="Caminho 47" d="M104,271.08a74.59,74.59,0,0,0,4,23,123,123,0,0,0,14.65,29.46c10.62,15.93,25.24,30,40.4,40.79,8.43,6,20.78,14,42,15.21,27.75,1.55,56.15-18.12,75.91-39.56" fill="none" stroke="#dd1d4b" stroke-linecap="round" stroke-linejoin="round" stroke-width="4.44"/>
    <path id="Caminho_48" data-name="Caminho 48" d="M149.61,198.8c-20.82,16-38.14,36.94-43.86,59" fill="none" stroke="#dd1d4b" stroke-linecap="round" stroke-linejoin="round" stroke-width="4.44"/>
    <path id="Caminho_49" data-name="Caminho 49" d="M226.35,178.09c-6-2.77-13.16-4.33-22.27-4.33-11.86,0-28.48,6.92-44.79,18" fill="none" stroke="#dd1d4b" stroke-linecap="round" stroke-linejoin="round" stroke-width="4.44"/>
    <path id="Caminho_50" data-name="Caminho 50" d="M257.83,237.56c-14.11-20.8-24.61-47.85-52.86-47.85-12.35,0-30.63,8.62-47.29,21.66" fill="none" stroke="#dd1d4b" stroke-linecap="round" stroke-linejoin="round" stroke-width="4.44"/>
    <path id="Caminho_51" data-name="Caminho 51" d="M295.52,291.39c1-13.62-8.67-22.95-29.46-43.25" fill="none" stroke="#dd1d4b" stroke-linecap="round" stroke-linejoin="round" stroke-width="4.44"/>
    <path id="Caminho_52" data-name="Caminho 52" d="M261.26,345.16c12.63-11,26.86-30.06,32.06-42.48" fill="none" stroke="#dd1d4b" stroke-linecap="round" stroke-linejoin="round" stroke-width="4.44"/>
    <path id="Caminho_53" data-name="Caminho 53" d="M183.59,363.9a60.37,60.37,0,0,0,23.64,5.3c14.24,0,31.93-7.91,45.11-16.81" fill="none" stroke="#dd1d4b" stroke-linecap="round" stroke-linejoin="round" stroke-width="4.44"/>
    <path id="Caminho_54" data-name="Caminho 54" d="M121.86,297.42c9.13,25.18,29.77,47.05,50.06,60.34" fill="none" stroke="#dd1d4b" stroke-linecap="round" stroke-linejoin="round" stroke-width="4.44"/>
    <path id="Caminho_55" data-name="Caminho 55" d="M131,238.87c-8.13,11.49-13.39,23.86-13.39,35.79a58.2,58.2,0,0,0,1.13,11.12" fill="none" stroke="#dd1d4b" stroke-linecap="round" stroke-linejoin="round" stroke-width="4.44"/>
    <path id="Caminho_56" data-name="Caminho 56" d="M148.62,219.06a138.8,138.8,0,0,0-10.11,10.34" fill="none" stroke="#dd1d4b" stroke-linecap="round" stroke-linejoin="round" stroke-width="4.44"/>
  </g>
</svg>
